# xmcd
#
# Track frame offsets: 
#        150
#        21319
#        42663
#        60411
#        80098
#        102048
#        124288
#        146800
#        167350
#        189213
#        207279
#        229210
#
# Disc length: 3402 seconds
#
# Revision: 1
# Processed by: cddbd v1.5.2PL0 Copyright (c) Steve Scherf et al.
# Submitted via: ExactAudioCopy v0.99pb5
#
DISCID=a40d480c
DTITLE=Lefty Perez - Salseros Unidos
DYEAR=2006
DGENRE=Salsa
TTITLE0=Salseros Unidos
TTITLE1=Encontrado a Otra
TTITLE2=Mentiras
TTITLE3=Mi Puerto Rico
TTITLE4=Nunca Es Tarde
TTITLE5=Exclusivamente Mía
TTITLE6=El Amor
TTITLE7=Mujer Sensual
TTITLE8=Guaya Guaya
TTITLE9=Me Da Locura
TTITLE10=El Sabor De Tu Boca
TTITLE11=Que Grata Reunion
EXTD=YEAR: 2006
EXTT0=
EXTT1=
EXTT2=
EXTT3=
EXTT4=
EXTT5=
EXTT6=
EXTT7=
EXTT8=
EXTT9=
EXTT10=
EXTT11=
PLAYORDER=
